<svg width="32px" height="32px" viewBox="0 0 48 48" id="Layer_1" version="1.1" xml:space="preserve" xmlns="http://www.w3.org/2000/svg" xmlns:xlink="http://www.w3.org/1999/xlink" fill="#000000"><g id="SVGRepo_bgCarrier" stroke-width="0"></g><g id="SVGRepo_tracerCarrier" stroke-linecap="round" stroke-linejoin="round"></g><g id="SVGRepo_iconCarrier"><style type="text/css"> .st0{fill:#010101;} </style><path class="st0" d="M41,26.083h-1.192c-0.24-3.863-3.218-6.99-7.017-7.456c1.88-1.135,3.145-3.192,3.145-5.543 c0-3.571-2.906-6.477-6.478-6.477s-6.477,2.906-6.477,6.477c0,2.352,1.264,4.408,3.144,5.543c-3.799,0.466-6.777,3.593-7.017,7.456 H17.5V21c0-0.276-0.224-0.5-0.5-0.5h-2.833v-2c0-0.276-0.224-0.5-0.5-0.5h-2.834v-1.125c0-0.276-0.224-0.5-0.5-0.5H7 c-0.276,0-0.5,0.224-0.5,0.5v9.708v5.167c0,0.276,0.224,0.5,0.5,0.5h2.833v8.917c0,0.276,0.224,0.5,0.5,0.5h27.334 c0.276,0,0.5-0.224,0.5-0.5V32.25H41c0.276,0,0.5-0.224,0.5-0.5v-5.167C41.5,26.307,41.276,26.083,41,26.083z M23.981,13.083 c0-3.02,2.457-5.477,5.477-5.477c3.021,0,5.478,2.457,5.478,5.477s-2.457,5.477-5.478,5.477 C26.438,18.561,23.981,16.104,23.981,13.083z M27.106,19.561h4.704c3.704,0,6.748,2.883,7.005,6.522H20.101 C20.357,22.443,23.401,19.561,27.106,19.561z M10.833,26.083v-5.271h2.334V21v5.083H10.833z M7.5,26.083v-6.958h2.333v6.958H7.5z M14.167,23.322H16.5v2.761h-2.333V23.322z M16.5,21.5v0.822h-2.333V21.5H16.5z M13.167,19.813h-2.334V19h2.334V19.813z M9.833,17.375v0.75H7.5v-0.75H9.833z M37.167,40.667H10.833V32.25h26.334V40.667z M40.5,31.25h-2.833H10.333H7.5v-4.167h2.833 h3.334H17h2.583h19.75H40.5V31.25z"></path></g></svg>